<?xml version="1.0" encoding="utf-8"?>
<!-- Generator: Adobe Illustrator 19.2.1, SVG Export Plug-In . SVG Version: 6.00 Build 0)  -->
<svg version="1.2" baseProfile="tiny" id="Layer_1" xmlns="http://www.w3.org/2000/svg" xmlns:xlink="http://www.w3.org/1999/xlink"
	 x="0px" y="0px" viewBox="0 0 259 387.2" xml:space="preserve">
<g>
	<path d="M252.4,104.4c-1.6,5.6-1.9,11.1-2.7,16.4c-4.3,30.3-27.4,51.5-57.5,53.1c-5.2,0.3-9.7,1.8-13,6.3c-4.8,6.7-5.5,7-13.2,4.1
		c-6.6-2.5-13.1-4.7-20.3-3.2c-6.7,1.4-11.5-0.8-14.4-7.5c-2.2-5-6-8.8-11.5-10.3c-15.3-4.2-25.7-14.3-32.4-28.3
		c-7.9-16.6-7-34-3.2-51.3C86.5,73,90.7,63,98.7,55.2c1.6-1.6,4.6-3.2,6.4-2.7c5.8,1.6,9.7-1,14.1-4.1c6-4.3,12.4-8.1,18.9-11.6
		c3.9-2.1,6.4-4.5,5.5-8.9c-2.5-12.1-6-23.7-19.9-27.8c-2.3,0-4.7,0-7,0c-9.9,2.3-17.2,8.4-23.2,16.1c-5.8,7.4-6,15.9-0.8,23.7
		c3.6,5.4,3.6,5.3-1.8,9.5C69.6,65.9,55.9,87,53.6,114.4c-1,11.9-0.9,23.9-0.7,35.9c0.2,9.1,1.1,18.2,2,27.2
		c0.3,2.8,1.5,5.5,2.5,8.9C9.2,157.4,1.3,78.5,58.9,41c-1.9,0.5-2.8,0.7-3.7,1C20.9,54.1-3.1,91.2,0.3,127.4
		c1,10.2,3.3,20.3,4.4,30.5c1.3,12.7,1.6,25.6,3.1,38.3c1.9,15.1,5.9,29.7,14.7,42.5c11.5,16.6,29.3,18.8,45.7,13.7
		c4.3-1.3,6.6-4.3,5.5-8.7c-1-4-2.6-7.8-4.4-11.5c-3.1-6.3-2-12.6-0.8-19.1c2.3,3.7,3.8,7.5,5.5,11.3c7.5,17.2,14.9,34.6,27.9,48.7
		c15.2,16.4,33.9,21.7,55.4,16c10.2-2.7,12.1-9,7-18.2c-2.7-4.9-5.4-10.2-6.1-15.6c-1.2-9.7-1.7-19.6-1-29.4
		c0.4-6.1,3-12.2,5.8-17.7c1.1-2.2,5.6-4.2,8.2-3.8c2.2,0.3,4.7,3.9,5.5,6.5c3.5,11.6,1.9,23.4,0.7,35.2c-0.7,6.7-1.1,13.6-0.4,20.3
		c0.7,6.6,5.4,10,12,10.6c10.6,0.9,20.1-1.9,28.4-8.6c7.6-6.2,13.4-13.9,17.6-22.8c17.7-38,22.7-78.3,21.6-119.7
		C256.2,118.8,253.8,111.6,252.4,104.4z M153.6,196.4c-4.1-0.6-8.1-3.7-11.7-6.4c-1.7-1.3-1.2-4.1,1.9-3.9
		c7.3,0.6,14.6,1.6,21.9,2.5c0.6,0.1,1.1,0.7,1.9,1.3C164.8,196.6,158.7,197.1,153.6,196.4z"/>
	<path d="M86,320.6c-0.6,1-1,2.1-1.4,3.2c-3.3,7.5-6.5,14.9-9.8,22.4c-0.5,1-1.2,2-2.1,3.4c-2.8-9.4-5.1-18-8-26.5
		c-0.8-2.2-2.9-5-4.9-5.6c-14.3-3.9-18.5,0.2-16.5,14.9c0.2,1.7,0.5,3.9-0.3,5.2c-2.3,4-5.1,7.7-8.4,12.6c-1.9-7.3-3.3-13.3-5-19.2
		c-4.8-16.8-2.2-13.6-18.1-13.8c-7.6-0.1-9.6,2.6-7.1,9.9c3.4,10.3,7,20.4,10.6,30.6c3,8.3,5.9,16.6,9.2,24.7c0.8,1.9,3.3,4,5.3,4.2
		c1.4,0.2,3.3-2.4,4.7-4.1c0.9-1.1,1.2-2.7,1.9-4.1c4.3-9.7,8.6-19.3,13.2-29.7c4.4,11.6,8.2,22.4,12.6,32.9
		c0.9,2.2,3.6,4.7,5.7,4.9c1.5,0.2,4.2-2.9,5-5c4.9-12.2,9.4-24.5,14.1-36.8c2.6-6.8,5.3-13.6,7.5-20.6c0.6-1.9,0-5.3-1.3-6.3
		C90.1,315.8,87.7,318,86,320.6z"/>
	<path d="M190.4,318c-2-0.4-4.6,1.2-6.6,2.4c-1.1,0.7-1.4,2.6-2,3.9c-3.7,8.3-7.3,16.7-11.5,26.3c-2.1-7.4-3.8-13.7-5.6-19.9
		c-4-14.1-4.1-14.1-18.9-13.5c-3.1,0.1-4.7,1.4-5.1,4.3c-0.3,2.1-0.7,4.4-0.2,6.4c2.4,9.3-3.3,15.2-8.3,21.6
		c-0.3-0.6-0.5-0.9-0.6-1.2c-1.7-6.4-3.3-12.9-5-19.3c-3.9-14.1-2.7-11.6-15.1-11.8c-1.8,0-3.7,0-5.5,0c-3.6,0.1-5,2.4-4.9,5.6
		c0,1.8,0.5,3.6,1.2,5.3c6.2,17.4,12.4,34.8,18.6,52.1c0.5,1.4,1.1,2.8,1.9,4c2.7,3.9,6.4,3.8,8.5-0.4c1.4-2.6,2.4-5.5,3.6-8.2
		c3.8-8.6,7.6-17.2,11.9-26.7c1,2.5,1.7,3.9,2.2,5.4c3.5,9.2,6.7,18.4,10.5,27.5c0.9,2.1,3.5,4.7,5.3,4.7c1.8,0,4.5-2.6,5.3-4.7
		c7.4-19.2,14.6-38.6,21.8-57.8C192.9,321.6,193.7,318.6,190.4,318z"/>
	<path d="M248.7,317c-14.2,0-28.3-0.1-42.5,0.1c-5.8,0.1-7.3,1.8-7.3,7.6c0,16.5,0,33,0,49.5c0,12.6,0,12.6,12.4,12.8
		c9.2,0.2,9.2,0.1,9.2-9c0-8.3,0-16.5,0-25c6.9,0,13,0,19.2,0c3.2,0,6.5-0.3,6.6-4.3c0.1-4-3.3-4.5-6.4-4.5c-6.2,0-12.3,0-19.2,0
		c0-4.6,0.2-8.6-0.1-12.5c-0.2-3.8,1.5-4.9,5-4.9c7.7,0.2,15.3,0,23,0c3.2,0,6.3-0.6,6.4-4.6C255.2,318.1,252.3,317,248.7,317z"/>
	<path d="M208.1,48.4c8.3,3.6,14.5,9.7,20.6,16.3c4.8,5.2,9.2,5.4,15,1.4c2.6-1.8,5.2-3.7,7.5-5.8c5.6-5.1,8.7-11.4,7.6-19.1
		C257,28.7,241,15,228.1,14.1c-3.5,1.4-7.5,2-10.3,4.2c-7,5.5-10.9,13.3-12.9,21.9C204,43.6,204.8,46.9,208.1,48.4z"/>
	<path d="M140,98.1c-4.9-3.6-10.9-4.9-15.9-1.5c-10.1,6.7-16,16.5-17.5,26.5c0,9,4.1,15.9,9.9,18.2c6.3,2.5,11-0.8,15.1-4.9
		c4.3-4.3,8.3-9,12.1-13.9C149.1,115.5,147.2,103.3,140,98.1z"/>
	<path d="M190.5,145.4c5.7,10,15.6,10.7,22.8,1.8c2.8-3.5,3.9-8.5,6.1-13.4c-2.8-7.7-4.9-15.4-8.3-22.5c-3.2-6.7-11.7-9-18.6-6.1
		c-6.9,2.9-13.2,13.2-11,19.3C183.9,131.6,186.7,138.8,190.5,145.4z"/>
	<path d="M138.8,162.1c1.3,1.5,2.5,3.3,4.1,4.3c4.2,2.7,8.6,5.1,12.5,7.3c4.7-1.6,9.5-3.1,14.3-4.9c1.7-0.6,2.9-2.2,4.4-3.3
		c-1.1-1.4-2-3.6-3.5-4.1c-8.9-3-18.1-4.3-27.4-2.5C141.6,159.2,140.2,161,138.8,162.1z"/>
	<path d="M253.6,298.7c0.1-6.2-4.7-11.3-10.6-11.3c-6-0.1-10.9,4.9-10.9,11.1c0,6.1,5,11.2,10.9,11.1
		C248.7,309.5,253.5,304.6,253.6,298.7z M234.6,298.5c0-4.4,3.8-8,8.4-7.9c4.4,0.1,7.9,3.5,8,7.8c0,4.4-3.8,8-8.4,7.9
		C238.2,306.3,234.6,302.8,234.6,298.5z"/>
	<path d="M51.6,284.5c6,0.1,10.9-5.1,10.9-11.3c-0.1-6-4.8-10.8-10.7-10.9c-6.1-0.1-10.9,5-10.9,11.2
		C41,279.5,45.8,284.5,51.6,284.5z M51.3,265.4c4.5-0.2,8.6,3.5,8.6,7.9c0.1,4.2-3.6,7.9-7.8,8.1c-4.6,0.2-8.5-3.4-8.6-7.8
		C43.4,269.3,47,265.6,51.3,265.4z"/>
	<path d="M239.7,295c0,2.1,0,4.4,0,7.6c1-1.7,1.2-2.7,2-4.2c1.6,1.4,2.8,2.4,4,3.4C245.3,298.3,248.7,291.5,239.7,295z"/>
</g>
</svg>
