<svg id="격리_모드" data-name="격리 모드" xmlns="http://www.w3.org/2000/svg" viewBox="0 0 265.61 111.33"><defs><style>.cls-1{fill:#ed0048;}.cls-1,.cls-2,.cls-3{fill-rule:evenodd;}.cls-2{fill:#fff;}</style></defs><title>벡터 고급 개체</title><path class="cls-1" d="M-240.7-31.74a0.92,0.92,0,0,1,1.2.9,1.05,1.05,0,1,1-2.1.1A1,1,0,0,1-240.7-31.74Z" transform="translate(373.94 31.77)"/><path class="cls-1" d="M-263.5-27.14a0.92,0.92,0,0,1,1.2.9,1.05,1.05,0,1,1-2.1.1A1,1,0,0,1-263.5-27.14Z" transform="translate(373.94 31.77)"/><path class="cls-1" d="M-217.8-27.14a0.92,0.92,0,0,1,1.2.9,1.05,1.05,0,1,1-2.1.1A1,1,0,0,1-217.8-27.14Z" transform="translate(373.94 31.77)"/><path class="cls-1" d="M-240.5-26.34c1.87,3.39,4.26,6.71,9,7.2,4.9,0.51,8.66-1.51,11.7-3.3,0.22,2.29.32,4,1.4,5.2,2.49,2.85,8.57,1.71,13.2,1.6-5.31,2.89-9.44,7.49-8.6,16.2a194.34,194.34,0,0,0-53.3,0c0.54-8.81-3.2-13.33-8.7-16.1,4.45-.13,10.51,1.2,13.1-1.6,1.12-1.21,1.28-2.87,1.5-5.2a1.21,1.21,0,0,1,1,.4,17.48,17.48,0,0,0,9,2.9C-245.66-19-242.61-22.23-240.5-26.34Zm-15.8,15.8c-0.06-2-3.29-1.56-5.6-1.6-0.23,1.94,0,4.3-.1,6.4,2.58,0,6.7.64,6-2.3a2,2,0,0,0-1.2-1.1A1.38,1.38,0,0,0-256.3-10.54Zm3.5-1.6c-0.84,2.19-1.88,4.18-2.7,6.4h1.6a3.86,3.86,0,0,1,.6-1.4h2.7c0.19,0.47.39,0.95,0.6,1.4h1.6c-0.87-2.2-1.91-4.22-2.8-6.4h-1.6Zm11,2.1c0.27-2.54-3.2-2.1-5.8-2.1-0.23,1.94,0,4.3-.1,6.4h1.5a13.07,13.07,0,0,1,.1-2.6c1.89,0,2.09,1.64,3,2.6h1.8a10.9,10.9,0,0,0-2.2-2.8A1.76,1.76,0,0,0-241.8-10Zm1.2-1.8v6.1h1.5v-6.4C-239.58-12-240.57-12.41-240.6-11.84Zm3.1,2.6c0.78,0.87,3.67.58,3.7,1.7,0,0.62-1,1-1.9.8-0.64-.15-0.77-0.81-1.2-1.2-0.39.14-1.12,0-1.3,0.3,0.25,2.9,5.82,2.68,5.9.1a1.85,1.85,0,0,0-.8-1.6c-0.54-.37-3.39-0.58-3.3-1.4,0.07-.66.92-0.47,1.8-0.5,0.43,0.14.38,0.75,0.8,0.9a6.14,6.14,0,0,1,1.3-.1C-232.14-13.63-240.12-12.15-237.5-9.24Zm5.8-2.9v1.2h2.1v5.2h1.5c0.07-1.7-.13-3.67.1-5.2h2v-1.2h-5.7Zm7.9,0c-1,2.11-1.86,4.28-2.8,6.4h1.6a3.89,3.89,0,0,1,.7-1.4h2.7c0.1,0.53.37,0.89,0.5,1.4a5.52,5.52,0,0,0,1.7-.1c-1-2-1.88-4.25-2.9-6.3h-1.5Z" transform="translate(373.94 31.77)"/><path class="cls-1" d="M-280.2-18.54a0.92,0.92,0,0,1,1.2.9,1.05,1.05,0,1,1-2.1.1A1,1,0,0,1-280.2-18.54Z" transform="translate(373.94 31.77)"/><path class="cls-1" d="M-201.1-18.54a0.92,0.92,0,0,1,1.2.9,1.05,1.05,0,1,1-2.1.1A1,1,0,0,1-201.1-18.54Z" transform="translate(373.94 31.77)"/><path class="cls-2" d="M-257.2-9.14A2,2,0,0,1-256-8c0.7,2.94-3.42,2.27-6,2.3,0.07-2.1-.13-4.46.1-6.4,2.31,0,5.54-.43,5.6,1.6A1.38,1.38,0,0,1-257.2-9.14Z" transform="translate(373.94 31.77)"/><path class="cls-1" d="M-260.4-9.54c1.19,0,3,.2,2.5-1.2-0.55-.38-1.74-0.13-2.6-0.2A3.91,3.91,0,0,0-260.4-9.54Z" transform="translate(373.94 31.77)"/><path class="cls-2" d="M-260.5-6.84c1.36,0,3,.3,3-0.8s-1.63-.77-3-0.8v1.6Z" transform="translate(373.94 31.77)"/><path class="cls-2" d="M-251.2-12.14c0.89,2.18,1.93,4.2,2.8,6.4H-250c-0.21-.45-0.41-0.93-0.6-1.4h-2.7a3.86,3.86,0,0,0-.6,1.4h-1.6c0.82-2.22,1.86-4.21,2.7-6.4h1.6Zm-1.7,3.9h1.8a9.3,9.3,0,0,0-1-2.2C-252.27-9.61-252.68-9-252.9-8.24Z" transform="translate(373.94 31.77)"/><path class="cls-2" d="M-243.5-8.54a10.9,10.9,0,0,1,2.2,2.8h-1.8c-0.91-1-1.11-2.62-3-2.6a13.07,13.07,0,0,0-.1,2.6h-1.5c0.07-2.1-.13-4.46.1-6.4,2.6,0,6.07-.44,5.8,2.1A1.76,1.76,0,0,1-243.5-8.54Zm-2.7-.9c1.39,0,3,.27,2.8-0.9-0.16-.93-1.59-0.51-2.8-0.6v1.5Z" transform="translate(373.94 31.77)"/><path class="cls-2" d="M-239.1-12.14v6.4h-1.5v-6.1C-240.57-12.41-239.58-12-239.1-12.14Z" transform="translate(373.94 31.77)"/><path class="cls-2" d="M-232.5-10.24a6.14,6.14,0,0,0-1.3.1c-0.42-.15-0.37-0.76-0.8-0.9-0.88,0-1.73-.16-1.8.5-0.09.82,2.76,1,3.3,1.4a1.85,1.85,0,0,1,.8,1.6c-0.08,2.58-5.65,2.8-5.9-.1,0.19-.35.91-0.16,1.3-0.3,0.43,0.39.56,1,1.2,1.2,0.87,0.21,1.92-.18,1.9-0.8,0-1.11-2.92-.83-3.7-1.7C-240.12-12.15-232.14-13.63-232.5-10.24Z" transform="translate(373.94 31.77)"/><path class="cls-2" d="M-226-12.14v1.2h-2c-0.23,1.53,0,3.5-.1,5.2h-1.5v-5.2h-2.1v-1.2h5.7Z" transform="translate(373.94 31.77)"/><path class="cls-2" d="M-222.3-12.14c1,2.05,1.86,4.27,2.9,6.3a5.52,5.52,0,0,1-1.7.1c-0.13-.51-0.4-0.87-0.5-1.4h-2.7a3.89,3.89,0,0,0-.7,1.4h-1.6c0.94-2.12,1.85-4.29,2.8-6.4h1.5Zm-1.6,3.9h1.7a8.72,8.72,0,0,0-.9-2.2A18.65,18.65,0,0,0-223.9-8.24Z" transform="translate(373.94 31.77)"/><path class="cls-1" d="M-246.2-10.94c1.21,0.09,2.64-.33,2.8.6,0.2,1.17-1.41.88-2.8,0.9v-1.5Z" transform="translate(373.94 31.77)"/><path class="cls-1" d="M-252.1-10.44a9.3,9.3,0,0,1,1,2.2h-1.8C-252.68-9-252.27-9.61-252.1-10.44Z" transform="translate(373.94 31.77)"/><path class="cls-1" d="M-223.1-10.44a8.72,8.72,0,0,1,.9,2.2h-1.7A18.65,18.65,0,0,1-223.1-10.44Z" transform="translate(373.94 31.77)"/><path class="cls-1" d="M-260.5-8.44c1.37,0,3-.24,3,0.8s-1.64.75-3,.8v-1.6Z" transform="translate(373.94 31.77)"/><path class="cls-3" d="M-355.3,79.56c-3.23-2.78-.93-11.91-1.5-16.9-0.09-.79-0.92-1.23-1-1.9-0.12-1,.68-2,0.9-3.1a65.64,65.64,0,0,0,.6-8c0.37-5.33.76-10.33,1.3-15.9,0.24-2.49.74-5.82,2.6-6,2.64-.25,2.87,3.19,2.5,6-0.9,6.77-2.2,12.53-2.7,19.6-0.08,1.19-.37,3.63,0,4s3.38-1.46,4.2-1.9c4.09-2.18,8.62-4.71,12.4-7a43.71,43.71,0,0,0,10.8-8.6c1.38-1.6,3-3.39,2.7-6.3-0.4-3.38-4.4-5.18-7.2-6.3-6.25-2.49-14.95-3.8-23.2-3.8-4.54,0-9.1-.17-12.2,1.3-1.3.62-2.33,1.76-3.6,2.2-1.82.63-6.07,0.39-5.1-2.9,0.53-1.8,4.36-2.24,6.3-2.5a101.81,101.81,0,0,1,31.3,1.2,66.25,66.25,0,0,1,9.8,2.5c4.43,1.6,11.92,5.08,9.4,11.9-1.23,3.31-4.38,5.67-7.3,7.8-7.24,5.27-15.62,9-24.6,13-1.75.78-3.66,1.87-4.2,3.3-0.86,2.27-.31,7.1-0.4,9.9C-353.6,74.4-352.94,78-355.3,79.56Z" transform="translate(373.94 31.77)"/><path class="cls-3" d="M-258.6,46.86c4.1,0.08,8.55,0,12.6.4,5.69,0.62,11.73,1.62,13.7,5.7a6.56,6.56,0,0,1,.2,4.5c-1.06,3-4.47,5.45-7.3,7.3-7.41,4.83-15.41,8.42-24.5,12-1.57.62-4.36,1.9-5.6,1.3s-0.88-4.4-.8-6.1c0.31-6.73.86-13.25,1.2-19.8-2.42-.08-5.74.5-5.9-1.5-0.19-2.37,4.14-2.25,5.9-3.2,0.36-4.92.86-10.68,1.3-15.8a23.61,23.61,0,0,1,.6-5c0.3-.88,1.12-2.43,2.5-2.4,2,0,1.94,3.21,1.7,5.1-0.8,6.2-2.08,11.89-2.7,18.1a42.32,42.32,0,0,0,6.7-3.3,56.58,56.58,0,0,0,11.9-7.9c1.64-1.49,4.56-3.74,4-6.4-0.5-2.39-3-3.5-5-4.5a21.78,21.78,0,0,0-7.3-2.2,49.69,49.69,0,0,0-9.1,0,73.19,73.19,0,0,0-8.7.8c-1.26.27-6.93,3.55-7.3,0.4-0.24-2.07,2.92-2.59,4.9-2.8,11.3-1.2,23.87-.57,32.3,2.8,2.91,1.16,7.25,2.34,6.4,6.7-0.7,3.61-3.74,5.36-6.7,7.1C-248.4,41-254.1,44.07-258.6,46.86Zm0.4,24.7c6.85-3,13.4-6.33,18.6-11.1,1-.92,2.38-2.21,2.6-3.4a4.05,4.05,0,0,0-1-3.5c-1.39-1.48-4.22-2-7.4-2.4-7.71-1-13.79.23-20.9,0.4-0.38,5.61-.75,11.67-1.1,17.2-0.12,1.85-.49,3.86.2,5.5C-263.87,74.12-261,72.75-258.2,71.56Z" transform="translate(373.94 31.77)"/><path class="cls-3" d="M-137.2,42.86c6.9-.34,14.76-0.14,21.6-1.3,1.42-.24,5.21-1.43,6.6-0.5,1.2,0.8.58,3-.3,3.6a4.91,4.91,0,0,1-1.6.5c-4.14.53-8.82,0.1-13.6,0.3-4.63.19-9.28,0.21-13.4,0.4-1.49,7.33-2.43,15.68-3.3,23.8-0.11,1-.09,2.21-0.9,2.9a2.35,2.35,0,0,1-2.3-.4c0.36-7.41,2.46-14.48,2.8-21.9-0.7-.13-0.94.79-1.2,1.2-2.31,3.63-5,7-7.7,10.5-3,3.92-5.86,8.52-10.4,10.3-6.5,2.54-7.3-6.5-6.9-12-0.77.25-1.09,1.14-1.6,1.8a46,46,0,0,1-5,5.6c-2.49,2.29-5.41,4.79-8.8,5.3-3.21.49-4.34-1.75-5.1-4.3a13.82,13.82,0,0,0-3.3.7c-0.68,1.45-1.27,3-3.3,3.3s-8.18-.17-8.4-1.7,2.3-1.94,3.5-2.3a30.71,30.71,0,0,1,4.6-1.2c-1.21-2.09-4.4-3.07-4.7-6.4a48.06,48.06,0,0,0-4.9,3.9,4.86,4.86,0,0,0-1.4,1.5c-0.09.37,0.14,1.55,0,2.1-0.44,1.72-3,3.19-4.8,3.9-1.62.62-6.23,1.66-6.9-.2s1.6-2.73,2.6-3.4a31,31,0,0,0,3.6-2.6c-1.68-1.79-3.64-3.3-5.4-5-1.92,2.9-3.27,6.71-5.6,9.4-1.24,1.43-4.1,4.12-6.7,3a8,8,0,0,1-3.9-4.9c-1.65-5.32.53-12.11,5.2-13.6,3.82-1.22,5.44,3.75,4.1,7.1-1,2.38-3.57,4.16-5,6.6a2,2,0,0,0,2.4.9c1.81-.41,3.77-3.88,4.9-5.7,1.33-2.14,2.25-4.66,3.6-6.9,2-3.34,5.29-5.64,9.5-7,1-.33,3.16-1.43,4.4-0.9a1.89,1.89,0,0,1,.8,1.9c-0.2.77-2,1.25-3,1.7-1.15.51-2.27,1.06-3.1,1.5-1.72.9-5.09,2.52-4.9,4.9,0.22,2.79,3.77,3.64,5.5,5.3a97.68,97.68,0,0,0,10.7-9.8c1-1,2.23-3.06,3.9-2.9a1.58,1.58,0,0,1,1.4,1.3c0.19,1.11-1.14,2.65-1.9,3.6s-2.1,2-1.9,3.7c0.16,1.36,1.73,2.32,2.6,3.2a25.75,25.75,0,0,1,2.7,3.1c3.42,0.27,2.79-2.64,3.7-5.1a9.91,9.91,0,0,1,5-5.6c2.41-1.23,6.37-1.67,6.6,2.1,0.29,4.74-3.8,6.69-6.8,8.5-0.62.38-1.53,0.67-1.6,1.1-0.15.93,1.29,1.58,2,1.6,1.3,0,2.65-1.15,3.6-1.8,7.17-4.94,13.14-12.19,15.2-21.9-1.83-.18-4.07-0.37-5.9-0.5-1.64-.12-4.76,0-4.9-1.4-0.2-2,4.11-1.35,5.2-1.3s2.29,0,3.4.1a10.72,10.72,0,0,0,3.1.1c1.06-.34,2.13-3,2.8-4.2a45.24,45.24,0,0,1,2.6-4.4c0.52-.64,1.91-2.07,3.1-1.8,1.79,0.4.37,4.25,0,5.4-0.54,1.67-1.36,3.36-2.1,5.1,3.62,0.35,7.32.3,11.4,0.3,1.36,0,3.1.2,4-.2,1.55-.68,2.26-5.33,2.8-7.1,0.38-1.23.82-2.5,1.2-3.7,0.49-1.56.9-4.64,2.5-4.8s2,2.57,1.7,4.2C-133.45,35.22-136.08,39.39-137.2,42.86Zm-16.2,2.8c-1.27.06-3.2-.18-4.3,0.3-0.91.4-2.05,2.44-2.9,3.6-2.77,3.79-5.09,8.28-4.6,15,0.15,2.1.83,5,2.5,5.3,1.36,0.2,2.83-1.05,3.8-1.8,6.44-4.95,10.84-11.92,15.1-18.7a15.35,15.35,0,0,0,1.9-3.6C-145.71,45.71-149.64,45.48-153.4,45.66ZM-184,64.16c2.29-1,5-2.58,4.5-5.7C-182.32,57.48-184.19,61.82-184,64.16Zm-42.6-4.7c-0.3-1.54-1.89-.95-2.5-0.1a7.4,7.4,0,0,0-.6,5.9C-228.31,64.32-226.14,61.78-226.6,59.46Z" transform="translate(373.94 31.77)"/><path class="cls-3" d="M-289.2,43a1.68,1.68,0,0,1,.7,1.3c0.18,1.59-.59,4-0.9,5.9s-0.69,4-1,5.8c-0.69,4.12-1.7,8.19-1.7,11.9,0,1.71.65,7.71-1.3,7.9s-1.92-5.24-1.8-7.2c0.36-5.95,2.28-11.7,2.4-17.5-3,4.29-6.49,10.46-9.7,15.7-1.06,1.74-2.79,4.86-5.5,4.1s-1.94-5.47-2.6-8.5c-1.07.49-1.71,1.67-2.5,2.7-1.48,1.94-2.82,3.8-4.5,5.9-0.73.92-1.7,2.13-2.8,2.3-4.59.69-4-6-4.1-10.4-0.93,0-1.43,1.2-2.2,2s-1.52,1.38-2.3,2.1c-1.41,1.3-3.72,3.73-5.4,3.4-2.09-.41-2.06-3.23-2.8-5.2-1.71,2-3.3,4.68-5.3,6.4-0.89.77-2.94,1.91-4.3,0.7-1-.91-1-2.48-0.9-4.5a14.16,14.16,0,0,1,6.5-11.1c1.56-1,5.88-2,6.8.2,0.65,1.53,0,5.49.2,7.8,0.09,1,.62,2.64,1.1,2.7s2.31-2,2.8-2.5c1.92-1.88,3.15-3.34,5-5.4,0.7-.78,1.94-2.33,3.2-2s0.9,4.37.9,6.2,0,4.24,1,4.4c0.79,0.12,2.32-1.64,3.1-2.5,1.82-2,3.29-3.78,5.2-5.9,0.73-.81,2.07-2.62,3.1-2.4,2.09,0.44,0,8.63,2.3,9,1.56,0.25,4.34-3.69,5-4.7,3.22-4.91,5.58-10.27,8.8-15.3C-291.7,44.7-291.07,43.31-289.2,43Zm-53.3,19.1c-1,1.31-2,3.14-1.5,4.8,1.73,1.09,3.4-2.09,4.3-3.4,0.54-.79,1-1.58,1.5-2.3s1.18-1.63,1-2.4A8,8,0,0,0-342.5,62.06Z" transform="translate(373.94 31.77)"/><path class="cls-3" d="M-307.5,50.66c2.94-.48,2.6,3.7.3,3.7C-309.25,54.36-309.83,51-307.5,50.66Z" transform="translate(373.94 31.77)"/></svg>