<svg xmlns="http://www.w3.org/2000/svg" width="95.282" height="19.25" viewBox="0 0 95.282 19.25">
  <defs>
    <style>
      .cls-1 {
        fill: #1f4ba5;
        fill-rule: evenodd;
      }
    </style>
  </defs>
  <path id="svg-logo-aware" class="cls-1" d="M82.728,38.176a1.032,1.032,0,0,0,.264.78,0.756,0.756,0,0,0,.5.252,1.768,1.768,0,0,0,.432-0.048,10.64,10.64,0,0,1,3.192-.576,3.637,3.637,0,0,1,2.424.684,2.89,2.89,0,0,1,.792,2.292v0.192h-2.9a6.829,6.829,0,0,0-4.176,1.1,3.286,3.286,0,0,0-1.344,2.784,3.34,3.34,0,0,0,1.152,2.64,4.054,4.054,0,0,0,2.76.96,5.913,5.913,0,0,0,2.772-.576,6.817,6.817,0,0,0,1.74-1.248V48.04a1.066,1.066,0,0,0,1.08,1.08,1.085,1.085,0,0,0,.78-0.312,1.023,1.023,0,0,0,.324-0.768V41.248a4.586,4.586,0,0,0-1.2-3.24,4.848,4.848,0,0,0-3.792-1.488,10.5,10.5,0,0,0-4.176.864A0.855,0.855,0,0,0,82.728,38.176Zm2.328,5.76A6.643,6.643,0,0,1,87.72,43.5h2.616V45.52a6.29,6.29,0,0,1-1.6,1.248,4.18,4.18,0,0,1-2.1.552q-2.544,0-2.544-1.92A1.5,1.5,0,0,1,85.056,43.936Zm29.856,2.592L112.128,37.5a1.232,1.232,0,0,0-2.352,0l-2.784,9.024-2.808-9.24a0.938,0.938,0,0,0-1.032-.648,0.988,0.988,0,0,0-.72.312,0.909,0.909,0,0,0-.312.636,1.73,1.73,0,0,0,.072.54l3.408,9.984a1.546,1.546,0,0,0,.528.708,1.393,1.393,0,0,0,1.728,0,1.7,1.7,0,0,0,.552-0.732l2.544-7.944,2.544,7.944a1.69,1.69,0,0,0,.552.732,1.393,1.393,0,0,0,1.728,0,1.546,1.546,0,0,0,.528-0.708l3.408-9.984a1.73,1.73,0,0,0,.072-0.54,0.913,0.913,0,0,0-.312-0.636,0.99,0.99,0,0,0-.72-0.312,0.938,0.938,0,0,0-1.032.648Zm14.375-8.352a1.033,1.033,0,0,0,.264.78,0.756,0.756,0,0,0,.5.252,1.765,1.765,0,0,0,.432-0.048,10.646,10.646,0,0,1,3.192-.576,3.637,3.637,0,0,1,2.424.684,2.89,2.89,0,0,1,.792,2.292v0.192h-2.9a6.83,6.83,0,0,0-4.176,1.1,3.287,3.287,0,0,0-1.344,2.784,3.339,3.339,0,0,0,1.152,2.64,4.055,4.055,0,0,0,2.76.96,5.911,5.911,0,0,0,2.772-.576,6.815,6.815,0,0,0,1.74-1.248V48.04a1.066,1.066,0,0,0,1.08,1.08,1.084,1.084,0,0,0,.78-0.312,1.023,1.023,0,0,0,.324-0.768V41.248a4.585,4.585,0,0,0-1.2-3.24,4.848,4.848,0,0,0-3.792-1.488,10.5,10.5,0,0,0-4.176.864A0.855,0.855,0,0,0,129.287,38.176Zm2.328,5.76a6.645,6.645,0,0,1,2.664-.432H136.9V45.52a6.287,6.287,0,0,1-1.6,1.248,4.179,4.179,0,0,1-2.1.552q-2.546,0-2.545-1.92A1.5,1.5,0,0,1,131.615,43.936Zm20.544-6.192a1.106,1.106,0,0,0-1.1-1.1,1.024,1.024,0,0,0-.768.324,1.085,1.085,0,0,0-.312.78v10.3a1.066,1.066,0,0,0,1.08,1.08,1.084,1.084,0,0,0,.78-0.312,1.023,1.023,0,0,0,.324-0.768v-7.3a5.1,5.1,0,0,1,1.572-1.524,3.991,3.991,0,0,1,2.148-.588H156a1.152,1.152,0,0,0,.792-0.276,0.943,0.943,0,0,0,.312-0.744,1.081,1.081,0,0,0-.3-0.78,1,1,0,0,0-.756-0.312h-0.12a4.731,4.731,0,0,0-3.768,2.256V37.744Zm15.792,5.9h8.136a1.048,1.048,0,0,0,1.1-1.08,6.255,6.255,0,0,0-1.464-4.224,5.3,5.3,0,0,0-4.248-1.824,5.217,5.217,0,0,0-4.368,1.968,6.92,6.92,0,0,0-1.368,4.392,6.418,6.418,0,0,0,1.632,4.7,6.146,6.146,0,0,0,4.584,1.656,9.02,9.02,0,0,0,2.5-.312,6.371,6.371,0,0,0,.888-0.336q0.408-.192.924-0.468a0.944,0.944,0,0,0,.516-0.9,0.8,0.8,0,0,0-.288-0.6,0.883,0.883,0,0,0-.6-0.264,1.725,1.725,0,0,0-.744.216,6.882,6.882,0,0,1-3.1.624,3.754,3.754,0,0,1-4.1-3.552h0Zm5.832-4.464a3.637,3.637,0,0,1,1.248,2.688h-7.08a3.782,3.782,0,0,1,.408-1.608,3.282,3.282,0,0,1,3.12-1.9,3.442,3.442,0,0,1,2.3.816h0ZM111,30a2,2,0,1,1-2,2A2,2,0,0,1,111,30Z" transform="translate(-81.906 -30)"/>
</svg>
