<svg xmlns="http://www.w3.org/2000/svg" width="18" height="18" viewBox="0 0 18 18">
  <defs>
    <style>
      .cls-1 {
        fill: #c2c2c2;
        fill-rule: evenodd;
      }
    </style>
  </defs>
  <path id="settings" class="cls-1" d="M536.658,76.636l1.853-1.853-2.295-2.294-1.852,1.852a6.551,6.551,0,0,0-1.742-.722V71h-3.244v2.619a6.524,6.524,0,0,0-1.742.722l-1.853-1.852-2.294,2.294,1.852,1.853a6.518,6.518,0,0,0-.722,1.742H522v3.244h2.619a6.517,6.517,0,0,0,.722,1.742l-1.852,1.853,2.294,2.294,1.853-1.852a6.52,6.52,0,0,0,1.742.722V89h3.244V86.381a6.534,6.534,0,0,0,1.742-.722l1.852,1.852,2.295-2.294-1.853-1.853a6.485,6.485,0,0,0,.722-1.742H540V78.378h-2.62A6.486,6.486,0,0,0,536.658,76.636ZM531,84.118A4.118,4.118,0,1,1,535.118,80,4.118,4.118,0,0,1,531,84.118Zm0-5.615a1.5,1.5,0,1,0,1.5,1.5A1.5,1.5,0,0,0,531,78.5Z" transform="translate(-522 -71)"/>
</svg>
