<svg xmlns="http://www.w3.org/2000/svg" xmlns:xlink="http://www.w3.org/1999/xlink" preserveAspectRatio="xMidYMid" width="96" height="20" viewBox="0 0 96 20">
  <defs>
    <style>

      .cls-2 {
        fill: #1f4ba5;
      }
    </style>
  </defs>
  <path d="M94.985,13.335 C94.785,13.544 94.517,13.647 94.181,13.647 C94.181,13.647 86.045,13.647 86.045,13.647 C86.173,14.736 86.581,15.600 87.269,16.240 C87.957,16.880 88.917,17.199 90.149,17.199 C91.381,17.199 92.413,16.992 93.245,16.576 C93.533,16.432 93.781,16.360 93.989,16.360 C94.197,16.360 94.397,16.448 94.589,16.624 C94.781,16.800 94.877,17.000 94.877,17.224 C94.877,17.640 94.705,17.940 94.361,18.123 C94.017,18.308 93.709,18.464 93.437,18.592 C93.165,18.720 92.869,18.831 92.549,18.927 C91.829,19.135 90.997,19.240 90.053,19.240 C88.085,19.240 86.557,18.687 85.469,17.583 C84.381,16.480 83.837,14.912 83.837,12.880 C83.837,11.120 84.293,9.656 85.205,8.488 C86.229,7.176 87.685,6.519 89.573,6.519 C91.365,6.519 92.781,7.128 93.821,8.344 C94.797,9.480 95.285,10.888 95.285,12.567 C95.285,12.872 95.185,13.128 94.985,13.335 ZM91.877,9.184 C91.237,8.640 90.469,8.367 89.573,8.367 C88.149,8.367 87.109,9.000 86.453,10.264 C86.213,10.712 86.077,11.248 86.045,11.872 C86.045,11.872 93.125,11.872 93.125,11.872 C93.061,10.736 92.645,9.840 91.877,9.184 ZM74.093,8.631 C74.093,8.631 73.973,8.631 73.973,8.631 C73.173,8.631 72.457,8.828 71.825,9.220 C71.193,9.612 70.669,10.119 70.253,10.744 C70.253,10.744 70.253,18.039 70.253,18.039 C70.253,18.344 70.145,18.600 69.929,18.807 C69.713,19.015 69.453,19.120 69.149,19.120 C68.845,19.120 68.589,19.015 68.381,18.807 C68.173,18.600 68.069,18.344 68.069,18.039 C68.069,18.039 68.069,7.744 68.069,7.744 C68.069,7.440 68.173,7.180 68.381,6.963 C68.589,6.747 68.845,6.639 69.149,6.639 C69.453,6.639 69.713,6.747 69.929,6.963 C70.145,7.180 70.253,7.440 70.253,7.744 C70.253,7.744 70.253,8.776 70.253,8.776 C71.373,7.272 72.629,6.519 74.021,6.519 C74.021,6.519 74.141,6.519 74.141,6.519 C74.445,6.519 74.697,6.624 74.897,6.832 C75.097,7.040 75.197,7.299 75.197,7.612 C75.197,7.924 75.093,8.172 74.885,8.356 C74.677,8.540 74.413,8.631 74.093,8.631 ZM56.069,19.120 C55.765,19.120 55.509,19.015 55.301,18.807 C55.093,18.600 54.989,18.344 54.989,18.039 C54.989,18.039 54.989,17.416 54.989,17.416 C54.557,17.864 53.977,18.279 53.249,18.663 C52.521,19.047 51.597,19.240 50.477,19.240 C49.373,19.240 48.453,18.920 47.717,18.279 C46.949,17.607 46.565,16.728 46.565,15.640 C46.565,14.456 47.013,13.528 47.909,12.856 C48.885,12.120 50.277,11.752 52.085,11.752 C52.085,11.752 54.989,11.752 54.989,11.752 C54.989,11.752 54.989,11.560 54.989,11.560 C54.989,10.488 54.725,9.724 54.197,9.268 C53.669,8.811 52.861,8.584 51.773,8.584 C50.845,8.584 49.781,8.776 48.581,9.160 C48.453,9.192 48.309,9.208 48.149,9.208 C47.989,9.208 47.821,9.124 47.645,8.956 C47.469,8.788 47.381,8.528 47.381,8.176 C47.381,7.824 47.589,7.560 48.005,7.383 C49.349,6.807 50.741,6.519 52.181,6.519 C53.813,6.519 55.077,7.016 55.973,8.008 C56.773,8.872 57.173,9.952 57.173,11.248 C57.173,11.248 57.173,18.039 57.173,18.039 C57.173,18.344 57.065,18.600 56.849,18.807 C56.633,19.015 56.373,19.120 56.069,19.120 ZM54.989,13.504 C54.989,13.504 52.373,13.504 52.373,13.504 C51.237,13.504 50.349,13.647 49.709,13.936 C49.069,14.224 48.749,14.712 48.749,15.400 C48.749,16.680 49.597,17.320 51.293,17.320 C52.045,17.320 52.745,17.136 53.393,16.768 C54.041,16.400 54.573,15.984 54.989,15.520 C54.989,15.520 54.989,13.504 54.989,13.504 ZM34.397,18.112 C34.302,18.384 34.125,18.620 33.870,18.819 C33.613,19.020 33.325,19.120 33.005,19.120 C32.685,19.120 32.397,19.020 32.141,18.819 C31.885,18.620 31.701,18.376 31.590,18.088 C31.590,18.088 29.045,10.144 29.045,10.144 C29.045,10.144 26.501,18.088 26.501,18.088 C26.389,18.376 26.205,18.620 25.950,18.819 C25.693,19.020 25.405,19.120 25.085,19.120 C24.765,19.120 24.477,19.020 24.221,18.819 C23.965,18.620 23.789,18.384 23.693,18.112 C23.693,18.112 20.285,8.128 20.285,8.128 C20.238,7.984 20.214,7.804 20.214,7.588 C20.214,7.371 20.317,7.160 20.525,6.952 C20.733,6.744 20.973,6.639 21.246,6.639 C21.805,6.639 22.149,6.855 22.277,7.288 C22.277,7.288 25.085,16.527 25.085,16.527 C25.085,16.527 27.869,7.503 27.869,7.503 C27.949,7.248 28.097,7.040 28.314,6.880 C28.529,6.720 28.773,6.639 29.045,6.639 C29.317,6.639 29.561,6.720 29.777,6.880 C29.994,7.040 30.141,7.248 30.221,7.503 C30.221,7.503 33.005,16.527 33.005,16.527 C33.005,16.527 35.814,7.288 35.814,7.288 C35.941,6.855 36.285,6.639 36.845,6.639 C37.117,6.639 37.357,6.744 37.565,6.952 C37.773,7.160 37.877,7.371 37.877,7.588 C37.877,7.804 37.853,7.984 37.805,8.128 C37.805,8.128 34.397,18.112 34.397,18.112 ZM29.094,4.000 C27.989,4.000 27.094,3.104 27.094,1.999 C27.094,0.895 27.989,-0.000 29.094,-0.000 C30.198,-0.000 31.094,0.895 31.094,1.999 C31.094,3.104 30.198,4.000 29.094,4.000 ZM9.510,19.120 C9.206,19.120 8.949,19.015 8.742,18.807 C8.534,18.600 8.430,18.344 8.430,18.039 C8.430,18.039 8.430,17.416 8.430,17.416 C7.998,17.864 7.418,18.279 6.690,18.663 C5.961,19.047 5.037,19.240 3.918,19.240 C2.814,19.240 1.893,18.920 1.158,18.279 C0.390,17.607 0.006,16.728 0.006,15.640 C0.006,14.456 0.453,13.528 1.350,12.856 C2.325,12.120 3.717,11.752 5.526,11.752 C5.526,11.752 8.430,11.752 8.430,11.752 C8.430,11.752 8.430,11.560 8.430,11.560 C8.430,10.488 8.166,9.724 7.638,9.268 C7.110,8.811 6.301,8.584 5.214,8.584 C4.285,8.584 3.222,8.776 2.022,9.160 C1.893,9.192 1.749,9.208 1.590,9.208 C1.430,9.208 1.262,9.124 1.086,8.956 C0.909,8.788 0.822,8.528 0.822,8.176 C0.822,7.824 1.029,7.560 1.446,7.383 C2.790,6.807 4.182,6.519 5.622,6.519 C7.254,6.519 8.517,7.016 9.414,8.008 C10.214,8.872 10.614,9.952 10.614,11.248 C10.614,11.248 10.614,18.039 10.614,18.039 C10.614,18.344 10.506,18.600 10.290,18.807 C10.074,19.015 9.813,19.120 9.510,19.120 ZM8.430,13.504 C8.430,13.504 5.814,13.504 5.814,13.504 C4.677,13.504 3.789,13.647 3.150,13.936 C2.509,14.224 2.190,14.712 2.190,15.400 C2.190,16.680 3.038,17.320 4.734,17.320 C5.486,17.320 6.186,17.136 6.834,16.768 C7.482,16.400 8.013,15.984 8.430,15.520 C8.430,15.520 8.430,13.504 8.430,13.504 Z" id="path-1" class="cls-2" fill-rule="evenodd"/>
</svg>
