<svg xmlns="http://www.w3.org/2000/svg" width="51" height="51" viewBox="0 0 51 51">
  <defs>
    <style>
      .cls-1 {
        fill: #fff;
        fill-rule: evenodd;
      }
    </style>
  </defs>
  <path id="fa-clock-o" class="cls-1" d="M1426.45,113.05a1.028,1.028,0,0,0-.76-0.3h-2.12a1.025,1.025,0,0,0-1.07,1.063V125.5h-7.44a1.025,1.025,0,0,0-1.06,1.062v2.125a1.025,1.025,0,0,0,1.06,1.063h10.63a1.025,1.025,0,0,0,1.06-1.063V113.814A1.034,1.034,0,0,0,1426.45,113.05Zm5.12,28.093a18.162,18.162,0,0,1-18.13,0,18.024,18.024,0,0,1-6.58-6.575,18.19,18.19,0,0,1,0-18.131,18.029,18.029,0,0,1,6.58-6.574,18.156,18.156,0,0,1,18.13,0,18,18,0,0,1,6.57,6.574,18.125,18.125,0,0,1,0,18.131A18,18,0,0,1,1431.57,141.143Zm3.73-37.723a25.663,25.663,0,0,0-25.6,0,25.374,25.374,0,0,0-9.28,9.282,25.667,25.667,0,0,0,0,25.6,25.363,25.363,0,0,0,9.28,9.281,25.663,25.663,0,0,0,25.6,0,25.363,25.363,0,0,0,9.28-9.281,25.667,25.667,0,0,0,0-25.6A25.374,25.374,0,0,0,1435.3,103.42Z" transform="translate(-1397 -100)"/>
</svg>
