<svg xmlns="http://www.w3.org/2000/svg" width="95.938" height="72.156" viewBox="0 0 95.938 72.156">
  <defs>
    <style>
      .cls-1 {
        fill: #fffefe;
        fill-rule: evenodd;
      }
    </style>
  </defs>
  <path id="fa-coffee" class="cls-1" d="M350.083,691.456h-3.308V671.773h3.308a9.611,9.611,0,0,1,7.03,2.871,9.843,9.843,0,0,1,0,13.942,9.61,9.61,0,0,1-7.03,2.87h0Zm-72.206,38.8a12.8,12.8,0,0,0,9.355,3.845h66.159a12.806,12.806,0,0,0,9.356-3.845,12.59,12.59,0,0,0,3.876-9.277H274A12.587,12.587,0,0,0,277.877,730.258Zm72.206-68.326H290.54a3.191,3.191,0,0,0-2.326.974,3.138,3.138,0,0,0-.982,2.306v37.726a11.006,11.006,0,0,0,3.411,8.1,11.189,11.189,0,0,0,8.167,3.383H335.2a11.191,11.191,0,0,0,8.167-3.383,11.006,11.006,0,0,0,3.411-8.1V701.3h3.308a19.2,19.2,0,0,0,14.033-5.767,19.56,19.56,0,0,0,0-27.833,19.2,19.2,0,0,0-14.033-5.766h0Z" transform="translate(-274 -661.938)"/>
</svg>
